<svg width="25" height="24" viewBox="0 0 25 24" fill="none" xmlns="http://www.w3.org/2000/svg">
<path fill-rule="evenodd" clip-rule="evenodd" d="M13.207 15.707C13.0194 15.8944 12.7651 15.9998 12.5 15.9998C12.2348 15.9998 11.9805 15.8944 11.793 15.707L6.13598 10.05C6.04047 9.95773 5.96428 9.84739 5.91188 9.72538C5.85947 9.60338 5.83188 9.47216 5.83073 9.33938C5.82957 9.2066 5.85487 9.07492 5.90516 8.95202C5.95544 8.82913 6.02969 8.71747 6.12358 8.62358C6.21747 8.52969 6.32913 8.45544 6.45202 8.40515C6.57492 8.35487 6.7066 8.32957 6.83938 8.33073C6.97216 8.33188 7.10338 8.35947 7.22538 8.41188C7.34739 8.46428 7.45773 8.54047 7.54998 8.63598L12.5 13.586L17.45 8.63598C17.6386 8.45382 17.8912 8.35302 18.1534 8.3553C18.4156 8.35758 18.6664 8.46275 18.8518 8.64816C19.0372 8.83357 19.1424 9.08438 19.1447 9.34658C19.1469 9.60877 19.0461 9.86137 18.864 10.05L13.207 15.707Z" fill="black"/>
</svg>
