<svg width="18" height="18" viewBox="0 0 25 24" fill="none" xmlns="http://www.w3.org/2000/svg">
<path d="M17.4459 3.17305C18.0332 2.58578 18.3268 2.29215 18.6521 2.15173C19.1208 1.94942 19.6521 1.94942 20.1208 2.15173C20.446 2.29215 20.7397 2.58578 21.3269 3.17305C21.9142 3.76032 22.2079 4.05395 22.3483 4.37925C22.5506 4.8479 22.5506 5.37924 22.3483 5.84789C22.2079 6.17319 21.9142 6.46682 21.3269 7.05409L16.3054 12.0757C15.0682 13.3129 14.4496 13.9315 13.6748 14.298C12.9 14.6645 12.0294 14.7504 10.2882 14.9222L9.5 15L9.57778 14.2118C9.74958 12.4706 9.83549 11.6 10.202 10.8252C10.5685 10.0504 11.1871 9.43183 12.4243 8.19464L17.4459 3.17305Z" stroke="white" stroke-width="1.5" stroke-linejoin="round"/>
<path d="M6.5 15H4.25C3.2835 15 2.5 15.7835 2.5 16.75C2.5 17.7165 3.2835 18.5 4.25 18.5H13.75C14.7165 18.5 15.5 19.2835 15.5 20.25C15.5 21.2165 14.7165 22 13.75 22H11.5" stroke="white" stroke-width="1.5" stroke-linecap="round" stroke-linejoin="round"/>
</svg>
