<svg width="24" height="24" viewBox="0 0 24 24" fill="none" xmlns="http://www.w3.org/2000/svg">
<path d="M11.2502 1.5C11.4491 1.5 11.6399 1.57902 11.7805 1.71967C11.9212 1.86032 12.0002 2.05109 12.0002 2.25V3.642C12.2372 3.75 12.4542 3.901 12.6512 4.095L18.2192 9.66C18.6405 10.0819 18.8772 10.6537 18.8772 11.25C18.8772 11.8463 18.6405 12.4181 18.2192 12.84L10.6172 20.445C10.405 20.6572 10.1525 20.8249 9.87456 20.9381C9.5966 21.0513 9.29882 21.1077 8.99872 21.1041C8.69863 21.1004 8.4023 21.0368 8.12717 20.9169C7.85204 20.797 7.60367 20.6233 7.39669 20.406L1.96669 14.7045C1.5614 14.2791 1.33859 13.7121 1.34588 13.1246C1.35316 12.5371 1.58997 11.9757 2.00569 11.5605L9.46969 4.095C9.76519 3.7995 10.1222 3.603 10.5002 3.507V2.25C10.5002 2.05109 10.5792 1.86032 10.7199 1.71967C10.8605 1.57902 11.0513 1.5 11.2502 1.5ZM10.5002 6.75V5.1855L3.68569 12H16.9397L17.1587 11.781C17.2993 11.6404 17.3783 11.4496 17.3783 11.2508C17.3783 11.0519 17.2993 10.8611 17.1587 10.7205L12.0002 5.565V6.75C12.0002 6.94891 11.9212 7.13968 11.7805 7.28033C11.6399 7.42098 11.4491 7.5 11.2502 7.5C11.0513 7.5 10.8605 7.42098 10.7199 7.28033C10.5792 7.13968 10.5002 6.94891 10.5002 6.75ZM2.93269 13.5C2.96475 13.5613 3.00514 13.6178 3.05269 13.668L8.48269 19.3695C8.55166 19.442 8.63445 19.5001 8.72619 19.5401C8.81792 19.5802 8.91675 19.6014 9.01684 19.6027C9.11693 19.604 9.21627 19.5852 9.30898 19.5474C9.4017 19.5097 9.48592 19.4538 9.55669 19.383L15.4397 13.5H2.93269ZM19.3817 15.333C19.3029 15.2431 19.2057 15.1711 19.0968 15.1218C18.9879 15.0724 18.8697 15.0469 18.7502 15.0469C18.6306 15.0469 18.5124 15.0724 18.4035 15.1218C18.2946 15.1711 18.1975 15.2431 18.1187 15.333L16.3937 17.3055C14.6207 19.3305 16.0577 22.5 18.7502 22.5C21.4427 22.5 22.8797 19.3305 21.1082 17.3055L19.3817 15.333ZM17.5217 18.2925L18.7502 16.8885L19.9787 18.2925C20.9027 19.3485 20.1527 21 18.7502 21C17.3477 21 16.5977 19.3485 17.5217 18.2925Z" fill="#545454"/>
</svg>
