<svg width="25" height="24" viewBox="0 0 25 24" fill="none" xmlns="http://www.w3.org/2000/svg">
<path d="M16.7627 10.5H8.23725C5.65571 10.5 4.36494 10.5 3.77143 11.3526C3.17793 12.2052 3.61904 13.4258 4.50126 15.867L5.58545 18.867C6.04545 20.1398 6.27545 20.7763 6.7889 21.1381C7.30235 21.5 7.97538 21.5 9.32143 21.5H15.6786C17.0246 21.5 17.6976 21.5 18.2111 21.1381C18.7245 20.7763 18.9545 20.1398 19.4146 18.867L20.4987 15.867C21.381 13.4258 21.8221 12.2052 21.2286 11.3526C20.6351 10.5 19.3443 10.5 16.7627 10.5Z" stroke="black" stroke-width="1.5" stroke-linecap="square"/>
<path d="M19.5 8C19.5 7.53406 19.5 7.30109 19.4239 7.11732C19.3224 6.87229 19.1277 6.67761 18.8827 6.57612C18.6989 6.5 18.4659 6.5 18 6.5H7C6.53406 6.5 6.30109 6.5 6.11732 6.57612C5.87229 6.67761 5.67761 6.87229 5.57612 7.11732C5.5 7.30109 5.5 7.53406 5.5 8" stroke="black" stroke-width="1.5" stroke-linecap="round" stroke-linejoin="round"/>
<path d="M17 4C17 3.53406 17 3.30109 16.9239 3.11732C16.8224 2.87229 16.6277 2.67761 16.3827 2.57612C16.1989 2.5 15.9659 2.5 15.5 2.5H9.5C9.03406 2.5 8.80109 2.5 8.61732 2.57612C8.37229 2.67761 8.17761 2.87229 8.07612 3.11732C8 3.30109 8 3.53406 8 4" stroke="black" stroke-width="1.5" stroke-linecap="round" stroke-linejoin="round"/>
</svg>
