<svg width="25" height="24" viewBox="0 0 25 24" fill="none" xmlns="http://www.w3.org/2000/svg">
<path d="M7.5 21C6.43913 21 5.42172 20.5786 4.67157 19.8284C3.92143 19.0783 3.5 18.0609 3.5 17V5C3.5 4.46957 3.71071 3.96086 4.08579 3.58579C4.46086 3.21071 4.96957 3 5.5 3H9.5C10.0304 3 10.5391 3.21071 10.9142 3.58579C11.2893 3.96086 11.5 4.46957 11.5 5V17C11.5 18.0609 11.0786 19.0783 10.3284 19.8284M7.5 21C8.56087 21 9.57828 20.5786 10.3284 19.8284M7.5 21H19.5C20.0304 21 20.5391 20.7893 20.9142 20.4142C21.2893 20.0391 21.5 19.5304 21.5 19V15C21.5 14.4696 21.2893 13.9609 20.9142 13.5858C20.5391 13.2107 20.0304 13 19.5 13H17.157M10.3284 19.8284L18.814 11.343C19.1889 10.9679 19.3996 10.4593 19.3996 9.929C19.3996 9.39867 19.1889 8.89006 18.814 8.515L15.985 5.686C15.6099 5.31106 15.1013 5.10043 14.571 5.10043C14.0407 5.10043 13.5321 5.31106 13.157 5.686L11.5 7.343M7.5 17H7.51" stroke="#8D62EC" stroke-width="1.5" stroke-linecap="round" stroke-linejoin="round"/>
</svg>
