<svg width="25" height="24" viewBox="0 0 25 24" fill="none" xmlns="http://www.w3.org/2000/svg">
<path d="M9.49956 22L9.24893 18.4911C9.11418 16.6046 10.6083 15 12.4996 15C14.3909 15 15.885 16.6046 15.7502 18.4911L15.4996 22" stroke="#8D62EC" stroke-width="2"/>
<path d="M2.85151 13.2135C2.49849 10.9162 2.32198 9.76763 2.75629 8.74938C3.19059 7.73112 4.15415 7.03443 6.08126 5.64106L7.52111 4.6C9.91841 2.86667 11.117 2 12.5001 2C13.8831 2 15.0818 2.86667 17.4791 4.6L18.9189 5.64106C20.8461 7.03443 21.8096 7.73112 22.2439 8.74938C22.6782 9.76763 22.5017 10.9162 22.1487 13.2135L21.8477 15.1724C21.3472 18.4289 21.097 20.0572 19.9291 21.0286C18.7612 22 17.0537 22 13.6389 22H11.3613C7.94646 22 6.23903 22 5.07112 21.0286C3.90321 20.0572 3.65299 18.4289 3.15255 15.1724L2.85151 13.2135Z" stroke="#8D62EC" stroke-width="2" stroke-linejoin="round"/>
</svg>
