<svg width="25" height="24" viewBox="0 0 25 24" fill="none" xmlns="http://www.w3.org/2000/svg">
<path fill-rule="evenodd" clip-rule="evenodd" d="M8.79303 12.707C8.60556 12.5194 8.50024 12.2651 8.50024 12C8.50024 11.7348 8.60556 11.4805 8.79303 11.293L14.45 5.63598C14.5423 5.54047 14.6526 5.46428 14.7746 5.41188C14.8966 5.35947 15.0279 5.33188 15.1606 5.33073C15.2934 5.32957 15.4251 5.35487 15.548 5.40516C15.6709 5.45544 15.7825 5.52969 15.8764 5.62358C15.9703 5.71747 16.0446 5.82913 16.0949 5.95202C16.1451 6.07492 16.1704 6.2066 16.1693 6.33938C16.1681 6.47216 16.1405 6.60338 16.0881 6.72538C16.0357 6.84739 15.9595 6.95773 15.864 7.04998L10.914 12L15.864 16.95C16.0462 17.1386 16.147 17.3912 16.1447 17.6534C16.1424 17.9156 16.0373 18.1664 15.8518 18.3518C15.6664 18.5372 15.4156 18.6424 15.1534 18.6447C14.8912 18.6469 14.6386 18.5461 14.45 18.364L8.79303 12.707Z" fill="#703Be7"/>
</svg>
