<svg width="16" height="16" viewBox="0 0 16 16" fill="none" xmlns="http://www.w3.org/2000/svg">
<path d="M4.33333 14.6667C5.622 14.6667 6.66667 13.622 6.66667 12.3333C6.66667 11.0447 5.622 10 4.33333 10C3.04467 10 2 11.0447 2 12.3333C2 13.622 3.04467 14.6667 4.33333 14.6667Z" stroke="#111336"/>
<path d="M12 12.6666C13.1046 12.6666 14 11.7712 14 10.6666C14 9.56206 13.1046 8.66663 12 8.66663C10.8954 8.66663 10 9.56206 10 10.6666C10 11.7712 10.8954 12.6666 12 12.6666Z" stroke="#111336"/>
<path d="M6.6665 12.3333V4.66668C6.6665 4.05104 6.6665 3.74323 6.84217 3.55197C7.01777 3.36072 7.34484 3.33281 7.9989 3.277C10.6812 3.04816 12.6058 2.17338 13.57 1.60653C13.767 1.49068 13.8656 1.43276 13.9327 1.47116C13.9998 1.50956 13.9998 1.62101 13.9998 1.84392V10.6667" stroke="#111336" stroke-linecap="round" stroke-linejoin="round"/>
<path d="M6.6665 6.66663C10.5776 6.66663 13.185 5.11107 13.9998 4.66663" stroke="#111336" stroke-linecap="round" stroke-linejoin="round"/>
</svg>
