<svg width="41" height="40" viewBox="0 0 41 40" fill="none" xmlns="http://www.w3.org/2000/svg">
<path d="M14.2803 19.5373C14.2135 20.8064 14.2903 22.1573 13.1565 23.0076C12.6288 23.4034 12.3182 24.0245 12.3182 24.6843C12.3182 25.5916 13.0289 26.3636 13.9545 26.3636H27.0454C27.9711 26.3636 28.6818 25.5916 28.6818 24.6843C28.6818 24.0245 28.3713 23.4034 27.8435 23.0076C26.7096 22.1573 26.7864 20.8064 26.7196 19.5373C26.5455 16.2293 23.8125 13.6364 20.5 13.6364C17.1874 13.6364 14.4544 16.2293 14.2803 19.5373Z" stroke="#703BE7" stroke-width="1.5" stroke-linecap="round" stroke-linejoin="round"/>
<path d="M19.1364 11.9318C19.1364 12.6849 19.7469 13.6363 20.5 13.6363C21.2531 13.6363 21.8636 12.6849 21.8636 11.9318C21.8636 11.1787 21.2531 10.9091 20.5 10.9091C19.7469 10.9091 19.1364 11.1787 19.1364 11.9318Z" stroke="#703BE7" stroke-width="1.5"/>
<path d="M23.2273 26.3636C23.2273 27.8699 22.0063 29.0909 20.5 29.0909C18.9937 29.0909 17.7727 27.8699 17.7727 26.3636" stroke="#703BE7" stroke-width="1.5" stroke-linecap="round" stroke-linejoin="round"/>
<circle cx="25.9546" cy="15.4546" r="2.72727" fill="#F55656"/>
</svg>
