<svg width="18" height="18" viewBox="0 0 25 24" fill="none" xmlns="http://www.w3.org/2000/svg">
<path d="M17.3 12.3C17.3 11.9022 17.4581 11.5207 17.7394 11.2394C18.0207 10.9581 18.4022 10.8 18.8 10.8C19.1979 10.8 19.5794 10.9581 19.8607 11.2394C20.142 11.5207 20.3 11.9022 20.3 12.3C20.3 12.6979 20.142 13.0794 19.8607 13.3607C19.5794 13.642 19.1979 13.8 18.8 13.8C18.4022 13.8 18.0207 13.642 17.7394 13.3607C17.4581 13.0794 17.3 12.6979 17.3 12.3ZM11.3 12.3C11.3 11.9022 11.4581 11.5207 11.7394 11.2394C12.0207 10.9581 12.4022 10.8 12.8 10.8C13.1979 10.8 13.5794 10.9581 13.8607 11.2394C14.142 11.5207 14.3 11.9022 14.3 12.3C14.3 12.6979 14.142 13.0794 13.8607 13.3607C13.5794 13.642 13.1979 13.8 12.8 13.8C12.4022 13.8 12.0207 13.642 11.7394 13.3607C11.4581 13.0794 11.3 12.6979 11.3 12.3ZM5.30005 12.3C5.30005 11.9022 5.45808 11.5207 5.73939 11.2394C6.02069 10.9581 6.40222 10.8 6.80005 10.8C7.19787 10.8 7.5794 10.9581 7.86071 11.2394C8.14201 11.5207 8.30005 11.9022 8.30005 12.3C8.30005 12.6979 8.14201 13.0794 7.86071 13.3607C7.5794 13.642 7.19787 13.8 6.80005 13.8C6.40222 13.8 6.02069 13.642 5.73939 13.3607C5.45808 13.0794 5.30005 12.6979 5.30005 12.3Z" fill="white"/>
</svg>
