<svg width="25" height="24" viewBox="0 0 25 24" fill="none" xmlns="http://www.w3.org/2000/svg">
<path d="M16 12C16 13.933 14.433 15.5 12.5 15.5C10.567 15.5 9 13.933 9 12C9 10.067 10.567 8.5 12.5 8.5C14.433 8.5 16 10.067 16 12Z" stroke="#8D62EC" stroke-width="2"/>
<path d="M21.511 14.0965C22.0329 13.9558 22.2939 13.8854 22.3969 13.7508C22.5 13.6163 22.5 13.3998 22.5 12.9669V11.0332C22.5 10.6003 22.5 10.3838 22.3969 10.2493C22.2938 10.1147 22.0329 10.0443 21.511 9.90359C19.5606 9.3776 18.3399 7.33852 18.8433 5.40088C18.9817 4.868 19.0509 4.60157 18.9848 4.4453C18.9187 4.28903 18.7291 4.18135 18.3497 3.96597L16.625 2.98674C16.2528 2.7754 16.0667 2.66973 15.8997 2.69223C15.7326 2.71473 15.5442 2.90274 15.1672 3.27874C13.708 4.73449 11.2936 4.73443 9.83434 3.27865C9.45743 2.90264 9.26898 2.71464 9.10193 2.69213C8.93489 2.66963 8.74877 2.7753 8.37653 2.98664L6.65184 3.96588C6.27253 4.18124 6.08287 4.28892 6.01678 4.44516C5.95068 4.60141 6.01987 4.86788 6.15825 5.40081C6.66137 7.33851 5.43972 9.37764 3.48902 9.90361C2.96712 10.0443 2.70617 10.1147 2.60308 10.2492C2.5 10.3838 2.5 10.6003 2.5 11.0332V12.9669C2.5 13.3998 2.5 13.6163 2.60308 13.7508C2.70615 13.8854 2.96711 13.9558 3.48902 14.0965C5.4394 14.6225 6.66008 16.6616 6.15672 18.5992C6.01829 19.1321 5.94907 19.3985 6.01516 19.5548C6.08126 19.7111 6.27092 19.8188 6.65025 20.0341L8.37495 21.0134C8.74721 21.2247 8.93334 21.3304 9.1004 21.3079C9.26746 21.2854 9.45588 21.0973 9.83271 20.7213C11.2927 19.2644 13.7088 19.2643 15.1689 20.7212C15.5457 21.0973 15.7341 21.2853 15.9012 21.3078C16.0682 21.3303 16.2544 21.2246 16.6266 21.0133L18.3513 20.034C18.7307 19.8187 18.9204 19.711 18.9864 19.5547C19.0525 19.3984 18.9833 19.132 18.8448 18.5991C18.3412 16.6616 19.5609 14.6226 21.511 14.0965Z" stroke="#8D62EC" stroke-width="2" stroke-linecap="round"/>
</svg>
