<svg width="25" height="24" viewBox="0 0 25 24" fill="none" xmlns="http://www.w3.org/2000/svg">
<path d="M22.5 12C22.5 16.714 22.5 19.071 21.035 20.535C19.572 22 17.214 22 12.5 22C7.786 22 5.429 22 3.964 20.535C2.5 19.072 2.5 16.714 2.5 12C2.5 7.286 2.5 4.929 3.964 3.464C5.43 2 7.786 2 12.5 2" stroke="black" stroke-linecap="round"/>
<path d="M2.5 12.5L4.252 10.967C4.69114 10.5831 5.25974 10.3803 5.84272 10.3998C6.4257 10.4193 6.97949 10.6596 7.392 11.072L11.682 15.362C12.0149 15.6948 12.4546 15.8996 12.9235 15.9402C13.3925 15.9808 13.8608 15.8547 14.246 15.584L14.545 15.374C15.1006 14.9838 15.7721 14.7936 16.4498 14.8344C17.1275 14.8753 17.7713 15.1448 18.276 15.599L21.5 18.5M15.5 5.5H19M19 5.5H22.5M19 5.5V9M19 5.5V2" stroke="black" stroke-linecap="round"/>
</svg>
