<svg width="25" height="24" viewBox="0 0 25 24" fill="none" xmlns="http://www.w3.org/2000/svg">
<g clip-path="url(#clip0_23571_4654)">
<path d="M12.3732 22.632L7.23033 23.0777L7.67604 17.9348L18.3732 7.30628C18.5328 7.143 18.7235 7.01326 18.934 6.92469C19.1445 6.83612 19.3705 6.79049 19.5989 6.79049C19.8273 6.79049 20.0533 6.83612 20.2638 6.92469C20.4743 7.01326 20.665 7.143 20.8246 7.30628L23.0018 9.50056C23.1624 9.65993 23.29 9.84953 23.377 10.0584C23.464 10.2673 23.5088 10.4914 23.5088 10.7177C23.5088 10.944 23.464 11.1681 23.377 11.377C23.29 11.5859 23.1624 11.7755 23.0018 11.9348L12.3732 22.632ZM1.94347 6.80913C1.34176 6.70456 1.34176 5.84056 1.94347 5.73599C3.00851 5.5497 3.9941 5.05091 4.77494 4.30305C5.55577 3.55518 6.09658 2.59201 6.32862 1.53599L6.36462 1.36971C6.4949 0.776563 7.34176 0.77142 7.4789 1.36628L7.52176 1.55828C7.76079 2.61029 8.30565 3.5681 9.08777 4.31117C9.86989 5.05425 10.8543 5.54938 11.9172 5.73428C12.5223 5.83713 12.5223 6.70628 11.9172 6.81256C10.8542 6.99703 9.86959 7.49177 9.08716 8.23454C8.30474 8.97731 7.75949 9.93492 7.52004 10.9868L7.47547 11.1806C7.34004 11.7737 6.49319 11.7703 6.3629 11.1754L6.32862 11.0091C6.09635 9.95265 5.55503 8.98914 4.77354 8.24123C3.99204 7.49332 3.00571 6.9948 1.94004 6.80913H1.94347Z" stroke="#8D62EC" stroke-width="1.5" stroke-linecap="round" stroke-linejoin="round"/>
</g>
<defs>
<clipPath id="clip0_23571_4654">
<rect width="24" height="24" fill="white" transform="translate(0.5)"/>
</clipPath>
</defs>
</svg>
