<svg width="25" height="24" viewBox="0 0 25 24" fill="none" xmlns="http://www.w3.org/2000/svg">
<path d="M5.68007 15.2964C4.42249 16.0335 1.12521 17.5386 3.13348 19.422C4.1145 20.342 5.2071 21 6.58077 21H14.4192C15.7929 21 16.8855 20.342 17.8665 19.422C19.8748 17.5386 16.5775 16.0335 15.3199 15.2964C12.3709 13.5679 8.62906 13.5679 5.68007 15.2964Z" stroke="#8D62EC" stroke-width="1.5" stroke-linecap="round" stroke-linejoin="round"/>
<path d="M14.5 7C14.5 9.20914 12.7091 11 10.5 11C8.29086 11 6.5 9.20914 6.5 7C6.5 4.79086 8.29086 3 10.5 3C12.7091 3 14.5 4.79086 14.5 7Z" stroke="#8D62EC" stroke-width="1.5"/>
<path d="M20.0183 3.43325L20.5462 4.49786C20.6182 4.64606 20.8102 4.78821 20.9722 4.81543L21.9291 4.97573C22.541 5.07856 22.685 5.52618 22.244 5.96775L21.5001 6.71781C21.3741 6.84484 21.3051 7.08982 21.3441 7.26524L21.5571 8.19375C21.7251 8.92869 21.3381 9.21299 20.6932 8.82889L19.7963 8.29356C19.6343 8.19677 19.3674 8.19677 19.2024 8.29356L18.3055 8.82889C17.6636 9.21299 17.2736 8.92567 17.4416 8.19375L17.6546 7.26524C17.6935 7.08982 17.6246 6.84484 17.4986 6.71781L16.7547 5.96775C16.3167 5.52618 16.4577 5.07856 17.0696 4.97573L18.0265 4.81543C18.1855 4.78821 18.3775 4.64606 18.4495 4.49786L18.9774 3.43325C19.2654 2.85558 19.7333 2.85558 20.0183 3.43325Z" stroke="#8D62EC" stroke-width="1.5" stroke-linecap="round" stroke-linejoin="round"/>
</svg>
